<svg width="129" height="16" viewBox="0 0 129 16" fill="none" xmlns="http://www.w3.org/2000/svg">
<g clip-path="url(#clip0_155_2681)">
<path d="M10.4191 15.7846L9.4082 13.0251H2.74338L1.65907 15.7846H0L6.23273 0L12.1027 15.7846H10.4191ZM6.15936 3.95834L3.19993 11.7287H8.92719L6.15936 3.95834Z" fill="#0F303F"/>
<path d="M20.6914 15.7846V0.552734H22.3016V14.4395H27.0424V15.7846H20.6914Z" fill="#0F303F"/>
<path d="M35.917 15.7846V0.552734H37.5271V14.4395H42.2679V15.7846H35.917Z" fill="#0F303F"/>
<path d="M51.1455 15.7846V0.552734H58.699V1.96701H52.7557V5.58804H56.7994V6.95355H52.7557V14.4598H58.9639V15.7806H51.1455V15.7846Z" fill="#0F303F"/>
<path d="M75.4693 15.9996C71.1646 15.9752 67.3125 13.6018 67.3125 8.51367C67.3125 3.73846 71.0668 0.3125 76.044 0.3125C76.309 0.3125 76.574 0.3125 76.8389 0.336884V1.75116C76.5495 1.72677 76.2601 1.70239 75.9747 1.70239C72.0777 1.72677 68.8778 4.14892 68.8778 8.51367C68.8778 12.8296 72.3182 14.6788 75.4203 14.6788C75.6364 14.6788 75.8524 14.6788 76.0685 14.6544V6.28253H72.7707V5.03488H77.5808V15.8045C76.8878 15.9264 76.1663 15.9996 75.4693 15.9996Z" fill="#0F303F"/>
<path d="M94.6937 12.1148L97.1232 15.7846H95.3418L93.3444 12.6919C92.6963 12.9561 91.7546 13.1715 90.7926 13.1715C90.3116 13.1715 89.7817 13.1227 89.3251 13.0292V15.7887H87.7354V0.552734H90.5725C95.5538 0.552734 97.5023 3.47882 97.5023 7.07547C97.5064 8.87582 96.8338 10.7697 94.6937 12.1148ZM90.8904 1.86947H89.3251V11.6556C89.8551 11.8222 90.2871 11.8954 90.866 11.8954C91.4693 11.8954 92.1908 11.7978 92.6229 11.5825L91.2532 9.54232L92.4802 8.77422L93.9232 10.9566C95.1258 10.2373 96.0144 8.91646 96.0144 7.26241C96.0144 3.38128 93.4667 1.86947 90.8904 1.86947Z" fill="#0F303F"/>
<path d="M106.89 15.7846V0.552734H108.479V15.7846H106.89Z" fill="#0F303F"/>
<path d="M127.317 15.7846L126.306 13.0251H119.641L118.557 15.7846H116.897L123.13 0L129 15.7846H127.317ZM123.057 3.95834L120.097 11.7287H125.825L123.057 3.95834Z" fill="#0F303F"/>
</g>
<defs>
<clipPath id="clip0_155_2681">
<rect width="129" height="16" fill="white"/>
</clipPath>
</defs>
</svg>
